<mxfile host="Electron" modified="2023-11-29T22:09:49.287Z" agent="Mozilla/5.0 (Windows NT 10.0; Win64; x64) AppleWebKit/537.36 (KHTML, like Gecko) draw.io/22.1.2 Chrome/114.0.5735.289 Electron/25.9.4 Safari/537.36" etag="SKgT5oMzV0zfTL1Vji4U" version="22.1.2" type="device">
  <diagram id="C5RBs43oDa-KdzZeNtuy" name="Page-1">
    <mxGraphModel dx="1036" dy="606" grid="1" gridSize="10" guides="1" tooltips="1" connect="1" arrows="1" fold="1" page="1" pageScale="1" pageWidth="827" pageHeight="1169" math="0" shadow="0">
      <root>
        <mxCell id="WIyWlLk6GJQsqaUBKTNV-0" />
        <mxCell id="WIyWlLk6GJQsqaUBKTNV-1" parent="WIyWlLk6GJQsqaUBKTNV-0" />
        <mxCell id="rSnw3dxp1-UVJo31hcwS-43" style="edgeStyle=orthogonalEdgeStyle;rounded=0;orthogonalLoop=1;jettySize=auto;html=1;exitX=0.5;exitY=1;exitDx=0;exitDy=0;" edge="1" parent="WIyWlLk6GJQsqaUBKTNV-1" source="rSnw3dxp1-UVJo31hcwS-0">
          <mxGeometry relative="1" as="geometry">
            <mxPoint x="280" y="190" as="targetPoint" />
          </mxGeometry>
        </mxCell>
        <mxCell id="rSnw3dxp1-UVJo31hcwS-0" value="start" style="ellipse;whiteSpace=wrap;html=1;" vertex="1" parent="WIyWlLk6GJQsqaUBKTNV-1">
          <mxGeometry x="220" y="50" width="120" height="80" as="geometry" />
        </mxCell>
        <mxCell id="rSnw3dxp1-UVJo31hcwS-3" style="edgeStyle=orthogonalEdgeStyle;rounded=0;orthogonalLoop=1;jettySize=auto;html=1;exitX=0.5;exitY=1;exitDx=0;exitDy=0;entryX=0.5;entryY=0;entryDx=0;entryDy=0;" edge="1" parent="WIyWlLk6GJQsqaUBKTNV-1" source="rSnw3dxp1-UVJo31hcwS-1" target="rSnw3dxp1-UVJo31hcwS-2">
          <mxGeometry relative="1" as="geometry" />
        </mxCell>
        <mxCell id="rSnw3dxp1-UVJo31hcwS-1" value="arrangeArr(int *n)" style="rounded=0;whiteSpace=wrap;html=1;" vertex="1" parent="WIyWlLk6GJQsqaUBKTNV-1">
          <mxGeometry x="640" y="60" width="120" height="60" as="geometry" />
        </mxCell>
        <mxCell id="rSnw3dxp1-UVJo31hcwS-5" style="edgeStyle=orthogonalEdgeStyle;rounded=0;orthogonalLoop=1;jettySize=auto;html=1;exitX=0.5;exitY=1;exitDx=0;exitDy=0;entryX=0.5;entryY=0;entryDx=0;entryDy=0;" edge="1" parent="WIyWlLk6GJQsqaUBKTNV-1" source="rSnw3dxp1-UVJo31hcwS-2" target="rSnw3dxp1-UVJo31hcwS-4">
          <mxGeometry relative="1" as="geometry" />
        </mxCell>
        <mxCell id="rSnw3dxp1-UVJo31hcwS-2" value="a = *n&lt;br&gt;a = i&lt;br&gt;a = j&lt;br&gt;a = temp&lt;br&gt;arr[a]&lt;br&gt;" style="rounded=0;whiteSpace=wrap;html=1;" vertex="1" parent="WIyWlLk6GJQsqaUBKTNV-1">
          <mxGeometry x="640" y="170" width="120" height="80" as="geometry" />
        </mxCell>
        <mxCell id="rSnw3dxp1-UVJo31hcwS-7" style="edgeStyle=orthogonalEdgeStyle;rounded=0;orthogonalLoop=1;jettySize=auto;html=1;exitX=0.5;exitY=1;exitDx=0;exitDy=0;entryX=0.5;entryY=0;entryDx=0;entryDy=0;" edge="1" parent="WIyWlLk6GJQsqaUBKTNV-1" source="rSnw3dxp1-UVJo31hcwS-4" target="rSnw3dxp1-UVJo31hcwS-6">
          <mxGeometry relative="1" as="geometry" />
        </mxCell>
        <mxCell id="rSnw3dxp1-UVJo31hcwS-11" style="edgeStyle=orthogonalEdgeStyle;rounded=0;orthogonalLoop=1;jettySize=auto;html=1;exitX=1;exitY=0.5;exitDx=0;exitDy=0;" edge="1" parent="WIyWlLk6GJQsqaUBKTNV-1" source="rSnw3dxp1-UVJo31hcwS-4">
          <mxGeometry relative="1" as="geometry">
            <mxPoint x="900" y="330" as="targetPoint" />
          </mxGeometry>
        </mxCell>
        <mxCell id="rSnw3dxp1-UVJo31hcwS-4" value="i&amp;lt;a?" style="rhombus;whiteSpace=wrap;html=1;" vertex="1" parent="WIyWlLk6GJQsqaUBKTNV-1">
          <mxGeometry x="660" y="290" width="80" height="80" as="geometry" />
        </mxCell>
        <mxCell id="rSnw3dxp1-UVJo31hcwS-8" style="edgeStyle=orthogonalEdgeStyle;rounded=0;orthogonalLoop=1;jettySize=auto;html=1;exitX=0.5;exitY=1;exitDx=0;exitDy=0;" edge="1" parent="WIyWlLk6GJQsqaUBKTNV-1" source="rSnw3dxp1-UVJo31hcwS-6">
          <mxGeometry relative="1" as="geometry">
            <mxPoint x="700" y="490" as="targetPoint" />
          </mxGeometry>
        </mxCell>
        <mxCell id="rSnw3dxp1-UVJo31hcwS-6" value="nhap vao gia tri phan tu" style="shape=parallelogram;perimeter=parallelogramPerimeter;whiteSpace=wrap;html=1;fixedSize=1;" vertex="1" parent="WIyWlLk6GJQsqaUBKTNV-1">
          <mxGeometry x="640" y="400" width="120" height="60" as="geometry" />
        </mxCell>
        <mxCell id="rSnw3dxp1-UVJo31hcwS-10" style="edgeStyle=orthogonalEdgeStyle;rounded=0;orthogonalLoop=1;jettySize=auto;html=1;exitX=0;exitY=0.5;exitDx=0;exitDy=0;entryX=0;entryY=0.5;entryDx=0;entryDy=0;" edge="1" parent="WIyWlLk6GJQsqaUBKTNV-1" source="rSnw3dxp1-UVJo31hcwS-9" target="rSnw3dxp1-UVJo31hcwS-4">
          <mxGeometry relative="1" as="geometry" />
        </mxCell>
        <mxCell id="rSnw3dxp1-UVJo31hcwS-9" value="i++" style="rounded=0;whiteSpace=wrap;html=1;" vertex="1" parent="WIyWlLk6GJQsqaUBKTNV-1">
          <mxGeometry x="640" y="490" width="120" height="60" as="geometry" />
        </mxCell>
        <mxCell id="rSnw3dxp1-UVJo31hcwS-14" style="edgeStyle=orthogonalEdgeStyle;rounded=0;orthogonalLoop=1;jettySize=auto;html=1;exitX=0.5;exitY=1;exitDx=0;exitDy=0;" edge="1" parent="WIyWlLk6GJQsqaUBKTNV-1" source="rSnw3dxp1-UVJo31hcwS-12" target="rSnw3dxp1-UVJo31hcwS-13">
          <mxGeometry relative="1" as="geometry" />
        </mxCell>
        <mxCell id="rSnw3dxp1-UVJo31hcwS-18" style="edgeStyle=orthogonalEdgeStyle;rounded=0;orthogonalLoop=1;jettySize=auto;html=1;exitX=1;exitY=0.5;exitDx=0;exitDy=0;" edge="1" parent="WIyWlLk6GJQsqaUBKTNV-1" source="rSnw3dxp1-UVJo31hcwS-12">
          <mxGeometry relative="1" as="geometry">
            <mxPoint x="1200" y="330" as="targetPoint" />
          </mxGeometry>
        </mxCell>
        <mxCell id="rSnw3dxp1-UVJo31hcwS-12" value="i&amp;lt;a?" style="rhombus;whiteSpace=wrap;html=1;" vertex="1" parent="WIyWlLk6GJQsqaUBKTNV-1">
          <mxGeometry x="900" y="290" width="80" height="80" as="geometry" />
        </mxCell>
        <mxCell id="rSnw3dxp1-UVJo31hcwS-15" style="edgeStyle=orthogonalEdgeStyle;rounded=0;orthogonalLoop=1;jettySize=auto;html=1;exitX=0.5;exitY=1;exitDx=0;exitDy=0;" edge="1" parent="WIyWlLk6GJQsqaUBKTNV-1" source="rSnw3dxp1-UVJo31hcwS-13">
          <mxGeometry relative="1" as="geometry">
            <mxPoint x="940" y="490" as="targetPoint" />
          </mxGeometry>
        </mxCell>
        <mxCell id="rSnw3dxp1-UVJo31hcwS-13" value="in ra gia tri va chi so phan tu trong mang." style="shape=parallelogram;perimeter=parallelogramPerimeter;whiteSpace=wrap;html=1;fixedSize=1;" vertex="1" parent="WIyWlLk6GJQsqaUBKTNV-1">
          <mxGeometry x="880" y="400" width="120" height="60" as="geometry" />
        </mxCell>
        <mxCell id="rSnw3dxp1-UVJo31hcwS-17" style="edgeStyle=orthogonalEdgeStyle;rounded=0;orthogonalLoop=1;jettySize=auto;html=1;exitX=0;exitY=0.5;exitDx=0;exitDy=0;" edge="1" parent="WIyWlLk6GJQsqaUBKTNV-1" source="rSnw3dxp1-UVJo31hcwS-16">
          <mxGeometry relative="1" as="geometry">
            <mxPoint x="850" y="330" as="targetPoint" />
          </mxGeometry>
        </mxCell>
        <mxCell id="rSnw3dxp1-UVJo31hcwS-16" value="i++" style="rounded=0;whiteSpace=wrap;html=1;" vertex="1" parent="WIyWlLk6GJQsqaUBKTNV-1">
          <mxGeometry x="880" y="490" width="120" height="60" as="geometry" />
        </mxCell>
        <mxCell id="rSnw3dxp1-UVJo31hcwS-21" style="edgeStyle=orthogonalEdgeStyle;rounded=0;orthogonalLoop=1;jettySize=auto;html=1;exitX=0.5;exitY=1;exitDx=0;exitDy=0;" edge="1" parent="WIyWlLk6GJQsqaUBKTNV-1" source="rSnw3dxp1-UVJo31hcwS-19" target="rSnw3dxp1-UVJo31hcwS-20">
          <mxGeometry relative="1" as="geometry" />
        </mxCell>
        <mxCell id="rSnw3dxp1-UVJo31hcwS-32" style="edgeStyle=orthogonalEdgeStyle;rounded=0;orthogonalLoop=1;jettySize=auto;html=1;exitX=1;exitY=0.5;exitDx=0;exitDy=0;" edge="1" parent="WIyWlLk6GJQsqaUBKTNV-1" source="rSnw3dxp1-UVJo31hcwS-19">
          <mxGeometry relative="1" as="geometry">
            <mxPoint x="1510.800048828125" y="330" as="targetPoint" />
          </mxGeometry>
        </mxCell>
        <mxCell id="rSnw3dxp1-UVJo31hcwS-19" value="i&amp;lt;a-1?" style="rhombus;whiteSpace=wrap;html=1;" vertex="1" parent="WIyWlLk6GJQsqaUBKTNV-1">
          <mxGeometry x="1201" y="290" width="80" height="80" as="geometry" />
        </mxCell>
        <mxCell id="rSnw3dxp1-UVJo31hcwS-23" style="edgeStyle=orthogonalEdgeStyle;rounded=0;orthogonalLoop=1;jettySize=auto;html=1;exitX=0.5;exitY=1;exitDx=0;exitDy=0;entryX=0.5;entryY=0;entryDx=0;entryDy=0;" edge="1" parent="WIyWlLk6GJQsqaUBKTNV-1" source="rSnw3dxp1-UVJo31hcwS-20" target="rSnw3dxp1-UVJo31hcwS-22">
          <mxGeometry relative="1" as="geometry" />
        </mxCell>
        <mxCell id="rSnw3dxp1-UVJo31hcwS-29" style="edgeStyle=orthogonalEdgeStyle;rounded=0;orthogonalLoop=1;jettySize=auto;html=1;exitX=1;exitY=0.5;exitDx=0;exitDy=0;" edge="1" parent="WIyWlLk6GJQsqaUBKTNV-1" source="rSnw3dxp1-UVJo31hcwS-20">
          <mxGeometry relative="1" as="geometry">
            <mxPoint x="1350" y="460" as="targetPoint" />
          </mxGeometry>
        </mxCell>
        <mxCell id="rSnw3dxp1-UVJo31hcwS-20" value="j&amp;lt;a-i-1?" style="rhombus;whiteSpace=wrap;html=1;" vertex="1" parent="WIyWlLk6GJQsqaUBKTNV-1">
          <mxGeometry x="1201" y="420" width="80" height="80" as="geometry" />
        </mxCell>
        <mxCell id="rSnw3dxp1-UVJo31hcwS-25" style="edgeStyle=orthogonalEdgeStyle;rounded=0;orthogonalLoop=1;jettySize=auto;html=1;exitX=0.5;exitY=1;exitDx=0;exitDy=0;entryX=0.5;entryY=0;entryDx=0;entryDy=0;" edge="1" parent="WIyWlLk6GJQsqaUBKTNV-1" source="rSnw3dxp1-UVJo31hcwS-22" target="rSnw3dxp1-UVJo31hcwS-24">
          <mxGeometry relative="1" as="geometry" />
        </mxCell>
        <mxCell id="rSnw3dxp1-UVJo31hcwS-22" value="arr[j] &amp;gt; arr[j+1]?" style="rhombus;whiteSpace=wrap;html=1;" vertex="1" parent="WIyWlLk6GJQsqaUBKTNV-1">
          <mxGeometry x="1201" y="545" width="80" height="80" as="geometry" />
        </mxCell>
        <mxCell id="rSnw3dxp1-UVJo31hcwS-26" style="edgeStyle=orthogonalEdgeStyle;rounded=0;orthogonalLoop=1;jettySize=auto;html=1;exitX=0.5;exitY=1;exitDx=0;exitDy=0;" edge="1" parent="WIyWlLk6GJQsqaUBKTNV-1" source="rSnw3dxp1-UVJo31hcwS-24">
          <mxGeometry relative="1" as="geometry">
            <mxPoint x="1241" y="740" as="targetPoint" />
          </mxGeometry>
        </mxCell>
        <mxCell id="rSnw3dxp1-UVJo31hcwS-24" value="temp = arr[j]&lt;br&gt;arr[j] = arr[j+1]&lt;br&gt;arr[j+1] = temp" style="rounded=0;whiteSpace=wrap;html=1;" vertex="1" parent="WIyWlLk6GJQsqaUBKTNV-1">
          <mxGeometry x="1181" y="650" width="120" height="60" as="geometry" />
        </mxCell>
        <mxCell id="rSnw3dxp1-UVJo31hcwS-28" style="edgeStyle=orthogonalEdgeStyle;rounded=0;orthogonalLoop=1;jettySize=auto;html=1;exitX=0;exitY=0.5;exitDx=0;exitDy=0;entryX=0;entryY=0.5;entryDx=0;entryDy=0;" edge="1" parent="WIyWlLk6GJQsqaUBKTNV-1" source="rSnw3dxp1-UVJo31hcwS-27" target="rSnw3dxp1-UVJo31hcwS-20">
          <mxGeometry relative="1" as="geometry" />
        </mxCell>
        <mxCell id="rSnw3dxp1-UVJo31hcwS-27" value="j++" style="rounded=0;whiteSpace=wrap;html=1;" vertex="1" parent="WIyWlLk6GJQsqaUBKTNV-1">
          <mxGeometry x="1180" y="740" width="120" height="60" as="geometry" />
        </mxCell>
        <mxCell id="rSnw3dxp1-UVJo31hcwS-31" style="edgeStyle=orthogonalEdgeStyle;rounded=0;orthogonalLoop=1;jettySize=auto;html=1;exitX=0.5;exitY=0;exitDx=0;exitDy=0;" edge="1" parent="WIyWlLk6GJQsqaUBKTNV-1" source="rSnw3dxp1-UVJo31hcwS-30">
          <mxGeometry relative="1" as="geometry">
            <mxPoint x="1240" y="400" as="targetPoint" />
            <Array as="points">
              <mxPoint x="1400" y="400" />
            </Array>
          </mxGeometry>
        </mxCell>
        <mxCell id="rSnw3dxp1-UVJo31hcwS-30" value="i++" style="rounded=0;whiteSpace=wrap;html=1;" vertex="1" parent="WIyWlLk6GJQsqaUBKTNV-1">
          <mxGeometry x="1350" y="430" width="120" height="60" as="geometry" />
        </mxCell>
        <mxCell id="rSnw3dxp1-UVJo31hcwS-33" value="gia tri va chi so phan tu sau khi sap xep" style="shape=parallelogram;perimeter=parallelogramPerimeter;whiteSpace=wrap;html=1;fixedSize=1;" vertex="1" parent="WIyWlLk6GJQsqaUBKTNV-1">
          <mxGeometry x="1500" y="300" width="120" height="60" as="geometry" />
        </mxCell>
        <mxCell id="rSnw3dxp1-UVJo31hcwS-34" value="true" style="text;html=1;align=center;verticalAlign=middle;resizable=0;points=[];autosize=1;strokeColor=none;fillColor=none;" vertex="1" parent="WIyWlLk6GJQsqaUBKTNV-1">
          <mxGeometry x="700" y="368" width="40" height="30" as="geometry" />
        </mxCell>
        <mxCell id="rSnw3dxp1-UVJo31hcwS-35" value="false" style="text;html=1;align=center;verticalAlign=middle;resizable=0;points=[];autosize=1;strokeColor=none;fillColor=none;" vertex="1" parent="WIyWlLk6GJQsqaUBKTNV-1">
          <mxGeometry x="775" y="298" width="50" height="30" as="geometry" />
        </mxCell>
        <mxCell id="rSnw3dxp1-UVJo31hcwS-36" value="true" style="text;html=1;align=center;verticalAlign=middle;resizable=0;points=[];autosize=1;strokeColor=none;fillColor=none;" vertex="1" parent="WIyWlLk6GJQsqaUBKTNV-1">
          <mxGeometry x="940" y="358" width="40" height="30" as="geometry" />
        </mxCell>
        <mxCell id="rSnw3dxp1-UVJo31hcwS-37" value="false" style="text;html=1;align=center;verticalAlign=middle;resizable=0;points=[];autosize=1;strokeColor=none;fillColor=none;" vertex="1" parent="WIyWlLk6GJQsqaUBKTNV-1">
          <mxGeometry x="1045" y="298" width="50" height="30" as="geometry" />
        </mxCell>
        <mxCell id="rSnw3dxp1-UVJo31hcwS-38" value="false" style="text;html=1;align=center;verticalAlign=middle;resizable=0;points=[];autosize=1;strokeColor=none;fillColor=none;" vertex="1" parent="WIyWlLk6GJQsqaUBKTNV-1">
          <mxGeometry x="1345" y="298" width="50" height="30" as="geometry" />
        </mxCell>
        <mxCell id="rSnw3dxp1-UVJo31hcwS-39" value="true" style="text;html=1;align=center;verticalAlign=middle;resizable=0;points=[];autosize=1;strokeColor=none;fillColor=none;" vertex="1" parent="WIyWlLk6GJQsqaUBKTNV-1">
          <mxGeometry x="1240" y="368" width="40" height="30" as="geometry" />
        </mxCell>
        <mxCell id="rSnw3dxp1-UVJo31hcwS-40" value="false" style="text;html=1;align=center;verticalAlign=middle;resizable=0;points=[];autosize=1;strokeColor=none;fillColor=none;" vertex="1" parent="WIyWlLk6GJQsqaUBKTNV-1">
          <mxGeometry x="1285" y="438" width="50" height="30" as="geometry" />
        </mxCell>
        <mxCell id="rSnw3dxp1-UVJo31hcwS-41" value="true" style="text;html=1;align=center;verticalAlign=middle;resizable=0;points=[];autosize=1;strokeColor=none;fillColor=none;" vertex="1" parent="WIyWlLk6GJQsqaUBKTNV-1">
          <mxGeometry x="1230" y="508" width="40" height="30" as="geometry" />
        </mxCell>
        <mxCell id="rSnw3dxp1-UVJo31hcwS-42" value="true" style="text;html=1;align=center;verticalAlign=middle;resizable=0;points=[];autosize=1;strokeColor=none;fillColor=none;" vertex="1" parent="WIyWlLk6GJQsqaUBKTNV-1">
          <mxGeometry x="1240" y="608" width="40" height="30" as="geometry" />
        </mxCell>
        <mxCell id="rSnw3dxp1-UVJo31hcwS-47" style="edgeStyle=orthogonalEdgeStyle;rounded=0;orthogonalLoop=1;jettySize=auto;html=1;exitX=0.5;exitY=1;exitDx=0;exitDy=0;entryX=0.5;entryY=0;entryDx=0;entryDy=0;" edge="1" parent="WIyWlLk6GJQsqaUBKTNV-1" source="rSnw3dxp1-UVJo31hcwS-45" target="rSnw3dxp1-UVJo31hcwS-46">
          <mxGeometry relative="1" as="geometry" />
        </mxCell>
        <mxCell id="rSnw3dxp1-UVJo31hcwS-45" value="n" style="shape=parallelogram;perimeter=parallelogramPerimeter;whiteSpace=wrap;html=1;fixedSize=1;" vertex="1" parent="WIyWlLk6GJQsqaUBKTNV-1">
          <mxGeometry x="220" y="190" width="120" height="60" as="geometry" />
        </mxCell>
        <mxCell id="rSnw3dxp1-UVJo31hcwS-48" style="edgeStyle=orthogonalEdgeStyle;rounded=0;orthogonalLoop=1;jettySize=auto;html=1;exitX=0.5;exitY=1;exitDx=0;exitDy=0;" edge="1" parent="WIyWlLk6GJQsqaUBKTNV-1" source="rSnw3dxp1-UVJo31hcwS-46">
          <mxGeometry relative="1" as="geometry">
            <mxPoint x="280" y="400" as="targetPoint" />
          </mxGeometry>
        </mxCell>
        <mxCell id="rSnw3dxp1-UVJo31hcwS-46" value="arrangeArr(&amp;amp;n)" style="rounded=0;whiteSpace=wrap;html=1;" vertex="1" parent="WIyWlLk6GJQsqaUBKTNV-1">
          <mxGeometry x="220" y="298" width="120" height="60" as="geometry" />
        </mxCell>
        <mxCell id="rSnw3dxp1-UVJo31hcwS-49" value="end" style="ellipse;whiteSpace=wrap;html=1;" vertex="1" parent="WIyWlLk6GJQsqaUBKTNV-1">
          <mxGeometry x="220" y="398" width="120" height="80" as="geometry" />
        </mxCell>
      </root>
    </mxGraphModel>
  </diagram>
</mxfile>
